<svg xmlns="http://www.w3.org/2000/svg" viewBox="0 0 64.17 16.15"><defs><style>.cls-1{fill:#011153;}</style></defs><title>Asset 2author</title><g id="Layer_2" data-name="Layer 2"><g id="Layer_1-2" data-name="Layer 1"><path class="cls-1" d="M4.79,0s0,0,0,0l.31,0h.25A6.82,6.82,0,0,1,8.12.6c.31.1.47.19.47.26V1c0,.05,0,.07-.08.07a.46.46,0,0,0,.5.43c0,.1.12.17.35.22l0-.09A1.51,1.51,0,0,1,9,1.33,1.24,1.24,0,0,0,9,1c.15,0,.22,0,.22.08a.3.3,0,0,0,0,.13h.09l.12-.09c.2.1.3.17.3.22h0a.3.3,0,0,0-.13,0l0,.08,0,.08a2.46,2.46,0,0,0,.43.35L10,2h.13l0-.17c-.12,0-.28-.16-.47-.47h.09a2.58,2.58,0,0,1,.59.55H10.3l-.09,0V2c0,.2.15.35.43.43a.52.52,0,0,1-.08-.25V2.09a5.25,5.25,0,0,1,1.15,1.5l0,.21q0,.11.21.3v.18a2.42,2.42,0,0,0-.17.76A1.75,1.75,0,0,1,11,5.3c0,.09-.08.16-.22.21,0,.23-.27.5-.81.82a1.55,1.55,0,0,1-.25.25.37.37,0,0,0-.18,0,.43.43,0,0,1-.38.27v.08c.11,0,.17,0,.17.08V7l-.08.13c.06,0,.22.14.47.42a2.85,2.85,0,0,1,1.15.86s.14.18.29.55a.67.67,0,0,1-.13.39v.39c-.1.22-.18.34-.25.34l0,.21-.21.17a1.45,1.45,0,0,0,.26.25l-.13.18V11l-.09,0v0l0-.09v0h0l-.08.21h-.09V11h0c0,.11,0,.16-.09.16h-.13V11h.18v0l0-.09a0,0,0,0,0,0-.05h-.09c0,.08-.1.17-.3.26,0,.06,0,.08-.13.08v.09h.18l-.05.09-.22,0-.07,0a.24.24,0,0,0,0,.12,1.94,1.94,0,0,0,0,.35l-.09,0-.09.12v0H9.7v.09c0,.2-.48.5-1.28.9a1.51,1.51,0,0,0-.38.29,2.17,2.17,0,0,1-.48.27l.05.07a.37.37,0,0,0-.09.22H7.43v-.08l.05-.09H7.43c-.07,0-.13.13-.16.38h0L7,14c0,.15-.09.22-.29.22a0,0,0,0,0,0,0l0-.08V14H6.58s-.09.12-.17.35a.63.63,0,0,0-.51.17H5.85l-.08,0c0,.15-.09.22-.26.22v.09h0l.55-.26h.08a.34.34,0,0,0,.18,0v.09H6.28s0,.08.13.13-.1.16-.3.25a.33.33,0,0,0-.17,0l0,.09a3.6,3.6,0,0,1-.69.29l.08.13v.12h0c-.14-.06-.21-.13-.21-.2h0v.13l0,.16s0,0,0,0-.14-.07-.27-.21a6.24,6.24,0,0,1-1.06.29H3.67v.09H3.51s0,0,0,0a1.38,1.38,0,0,1-.47.16L3,16l0-.08a.31.31,0,0,0-.13-.05v0c.17-.14.26-.24.26-.3a.78.78,0,0,0,.39-.22c0-.07-.11-.12-.31-.16a2.87,2.87,0,0,1-.9.38.24.24,0,0,0-.12,0l0,.09-.09,0H2v0l.09-.13H2c-.07,0-.12.07-.16.2l-.43-.12a.08.08,0,0,1-.09.09H1.2c0-.09,0-.13-.09-.13s0,.13-.08.13H.94l-.08,0A.62.62,0,0,0,.6,16l-.13.08h0L.34,16q0,.09-.21.12v-.09a1.41,1.41,0,0,0,.3-.5,10.35,10.35,0,0,1,1.84-1,29.35,29.35,0,0,1,3.92-1.92A7.36,7.36,0,0,0,8.63,11a1.43,1.43,0,0,0-.17-.52s0,0,0,0-.38-.16-.74-.47l-.93-.39a.37.37,0,0,1-.17,0h0V9.53a.37.37,0,0,0,.22-.09.33.33,0,0,0,.17,0,0,0,0,0,1,0,0L7,9.28l-.08,0a.5.5,0,0,1-.39-.22h0c0,.21-.46.34-1.37.38-.07.15-.15.22-.22.22v.17a2.78,2.78,0,0,1-.34.9,10.48,10.48,0,0,1-1.07,2.69c-.06,0-.08.07-.08.21H3.29a.55.55,0,0,0-.38.13H2.48a.27.27,0,0,1-.18.26,2.82,2.82,0,0,0-.5-.73c0-.06.05-.09.16-.09v-.08a.4.4,0,0,1-.08-.26H1.8q0,.18-.09.18s0,0,0,0q0-.27.21-.27v.05H2v-.09a.11.11,0,0,1-.12-.12,5,5,0,0,1,.17-.9q-.3,0-.3-.18c0-.19.07-.28.13-.29l0-.09L1.92,11v-.31l-.12-.17.08-.72a.3.3,0,0,1,0-.13l0-.09a2,2,0,0,1,0-.38v0a2,2,0,0,1,0-.38A61,61,0,0,0,0,1.71a1.62,1.62,0,0,1,.81-.6L1,1.24H1l0-.3A3.43,3.43,0,0,1,2.27.09h0a.53.53,0,0,0,.31.12h0q.12,0,.12,0L3,.21A10.14,10.14,0,0,0,4.79,0Zm-4,15.72H.86s.08,0,.13.13L.9,15.9a.36.36,0,0,0-.13-.05ZM2,12.43v.18h.09v-.18Zm.09-1.66L2,11c.07,0,.11-.08.13-.22Zm.09-.26-.05.09a.09.09,0,0,0,.09.08h0V10.6A.08.08,0,0,0,2.14,10.51ZM2.82,15V15H3A.08.08,0,0,0,3,14.91v0A.45.45,0,0,1,2.82,15Zm.43-.59h.13c.05,0,.08,0,.08-.09a0,0,0,0,1,0,0C3.31,14.27,3.25,14.32,3.25,14.36Zm.26-.22v.09h.12v-.09Zm.21,0h0a.48.48,0,0,1,.18,0v0l-.09.13v.09h0q.1,0,.21-.39h0l.26,0c-.07-.14-.13-.21-.17-.21a.41.41,0,0,0-.29.25C3.79,14,3.72,14,3.72,14.1ZM3.85,3.46A16.64,16.64,0,0,1,4.57,6a6.63,6.63,0,0,0,.34,1,13.4,13.4,0,0,0,1.5-.55,5.42,5.42,0,0,0,2.48-1V5.34a1.59,1.59,0,0,1-.38-.59A3.15,3.15,0,0,0,7,3.63a6.6,6.6,0,0,0-2.52-.38h0C4,3.3,3.85,3.37,3.85,3.46Zm0,11.71v.08H4l.22,0v0c-.09,0-.13,0-.13,0A.47.47,0,0,1,3.89,15.17Zm.64-.08v.08l.09.12-.22.14h0v-.09h.08v-.09h0l-.21,0c.08.18.13.27.17.27a1.35,1.35,0,0,1,.73-.31v0s-.06-.07-.18-.12l-.09,0H4.75V15Zm-.25-.73v0l.12,0a.41.41,0,0,1,0-.12l-.08-.05A.08.08,0,0,0,4.28,14.36Zm.25-.78v.09h.22v0Zm.09.78v0h.17v0a.08.08,0,0,0-.09-.09A.09.09,0,0,0,4.62,14.36Zm.63-1a.27.27,0,0,0-.16,0c0,.11-.1.17-.3.17v.12a1.12,1.12,0,0,0,.68-.29h0v0H5.43ZM5,13.85v.08c.23,0,.34-.09.34-.17Zm0,.29v0H5.3v-.13H5.17C5.11,14.07,5.09,14.1,5.09,14.14Zm.25.77c.09,0,.13.06.13.18h0s.1-.06.17-.18v0l-.08,0H5.47v-.09h0Q5.34,14.85,5.34,14.91Zm0-1.28v0c.26,0,.39.08.39.13s-.21.08-.21.13V14c0,.06,0,.09.08.09.17-.15.26-.25.26-.3l-.05-.26H5.68Zm.3-.47v0H6v-.12H6Zm.09,1.71.08,0c.21-.08.33-.15.34-.21H6.11C5.89,14.78,5.77,14.84,5.77,14.87Zm0-.55v0a.37.37,0,0,1,.18,0v-.08ZM6,13.46v0h.12v-.09Zm.07-4.74L6,8.8v0l.16,0c0-.06,0-.09.14-.09v0A.58.58,0,0,1,6.06,8.72Zm.27,5a.07.07,0,0,0,.08.08l.08-.13-.08,0A.08.08,0,0,0,6.33,13.72Zm.47.85,0,.09a.51.51,0,0,1-.26.09l0-.09v-.05Zm-.22-1.41,0,.22c.07,0,.11-.07.13-.22,0,0,0,0,0,0A.27.27,0,0,1,6.58,13.16Zm0,.35v.07H6.8c0-.05,0-.07-.09-.07Zm.22-4.75v0c0,.12.14.29.43.52h.12c.06,0,.09-.05.09-.13h0a3.88,3.88,0,0,1,1.15.68l.09,0Q9,9.91,9,10v.17s0,0,0,0a.76.76,0,0,1,.07.3A1.88,1.88,0,0,0,9.53,10l-.09-.14,0-.07a.9.9,0,0,0-.2-.39l-.09,0L8.72,9l-.18.05q-.42-.17-.42-.21l-.22,0a.24.24,0,0,0-.13,0c0,.06,0,.09-.07.09a.08.08,0,0,0-.09-.09l-.26,0A1.88,1.88,0,0,0,6.84,8.76Zm.21,4.53.09,0h.13s0-.08-.13-.13S7.05,13.24,7.05,13.29Zm.51.81h.09a.08.08,0,0,1,.08.09v0a3.89,3.89,0,0,0-.55.3.31.31,0,0,0-.13,0l.47-.34S7.53,14.1,7.56,14.1Zm-.26-1a.35.35,0,0,1,0,.12l.08,0,0-.09v-.08Zm0-.35,0,.09,0,.09h.13a.57.57,0,0,1,0-.22Zm0,1.12h0c.06,0,.09,0,.09.08a.08.08,0,0,1-.09.09l0-.09Zm.08-1.62a.09.09,0,0,0,.09.08h.09v-.08Zm.27.46c0,.21-.06.31-.18.31v0a.09.09,0,0,0,.09.08c.09,0,.24-.1.47-.3.17,0,.25,0,.25-.09A1,1,0,0,1,8,12.7c0,.05,0,.07-.09.07A.56.56,0,0,0,7.7,12.73Zm.07-.55v.12h.09a.31.31,0,0,1,0-.12Zm.43.34,0,.09h.13A.08.08,0,0,0,8.2,12.52Zm.18.18c0,.05,0,.07.08.07l0-.07Zm.21-.48v0l.08.12,0,.22a.24.24,0,0,1,.13,0c.1-.15.16-.22.18-.22a.28.28,0,0,0,.12.05v-.05s-.06-.1-.17-.16l-.13.08s0-.09-.13-.13Zm.13-.17v.13s.08,0,.13-.13ZM9,11.8l.05.08V12l-.17.13v.09H9c0-.07.08-.11.22-.13S9.26,12,9.4,12v0c0-.08-.13-.12-.34-.12ZM9.1,7l0,.09h.13A.08.08,0,0,0,9.1,7Zm0,5.26v0c0,.05,0,.08.08.08l.09-.13v0A.47.47,0,0,1,9.06,12.22Zm.47-.76,0,.21a.2.2,0,0,1,0,.13h.09a.4.4,0,0,1,.08-.22v-.09A.43.43,0,0,1,9.53,11.46Zm.22.38h.07v0s0,.08-.07.08Zm.12-.31H10l-.05.09a.36.36,0,0,1,.05.13H9.87Zm.38-.12h.09v.08s-.07.1-.21.18l0-.09C10.2,11.53,10.25,11.47,10.25,11.41Zm-.12-.22h.12v.09h-.12Zm.17-.42c.14,0,.21,0,.21.08s.13,0,.13-.08a.3.3,0,0,1,0-.13C10.4,10.68,10.3,10.72,10.3,10.77Zm.26-7.14a1.76,1.76,0,0,1,0,.31h0l.08,0c0-.17-.07-.26-.12-.26Zm.55-.81,0,.09a2,2,0,0,1,.27.51h.08v0C11.28,3,11.19,2.84,11.11,2.82Z"/><path class="cls-1" d="M17.25,5.17h.13s.05,0,.05,0a0,0,0,0,0,0,0,3.19,3.19,0,0,1,1.09.36,3.18,3.18,0,0,1,.77-.28v.09a.3.3,0,0,0,.13,0c.43,0,.69.33.77,1,0,0-.1,0-.17.14V6.2h0v.24s.09,0,.14.13l-.09.13v.5c.12,0,.17.1.17.32l0,.09a3.43,3.43,0,0,0,.13.68h0c-.09,0-.13-.14-.13-.41h0a.44.44,0,0,1-.09.31l.18.37h.09l-.05-.09q0-.09.09-.09l.05.09v.09c0,.06,0,.09-.14.09v0a1.87,1.87,0,0,1,.28.6l.09,0h0a.66.66,0,0,0,.23.41l.55.9s.08,0,.08.13l.09,0c.06.17.14.26.23.28s0-.05.05-.05l.54.41.09,0a10.58,10.58,0,0,1,.95.55,7.16,7.16,0,0,1,1.32.26.33.33,0,0,0,.17,0,2.25,2.25,0,0,0,.41,0h.36v.05s0,.05-.05.05l.05.09a.42.42,0,0,1-.22.22.08.08,0,0,0-.09-.09c0,.08-.15.15-.41.23l-.09-.05-.82.18c0,.13-.06.19-.17.19l-.24-.05,0,.09h-.18a.44.44,0,0,1-.13.22l-.19-.08c-.75.09-1.13.16-1.13.22v0l.09,0h.23a3.79,3.79,0,0,1,.5,0,2.27,2.27,0,0,0,.36-.14v0c0,.06-.14.12-.41.18,0,.26.05.43.05.5a1.24,1.24,0,0,1-.41.08,4.53,4.53,0,0,1-2.9-1.31,6.61,6.61,0,0,1-1.45-2.26H18A4,4,0,0,1,16.66,12a2.23,2.23,0,0,1-1.9,1,2.45,2.45,0,0,1-1.41-.55.48.48,0,0,1-.45-.27H13l0-.09-.1.05A2.7,2.7,0,0,1,12,10a3.86,3.86,0,0,1,2.35-3.57A7,7,0,0,1,16.88,5.3q0,.09.09.09C17,5.32,17.06,5.24,17.25,5.17Zm-3.3,7v.1h.22v-.14Zm.81-.4c0,.09,0,.13-.09.13l.05.09v0a.09.09,0,0,1-.1.1l-.09-.05a.32.32,0,0,1-.14.27h.14c0-.06,0-.08.05-.08l.18,0a1,1,0,0,1,.49-.27v-.13A.51.51,0,0,1,15,12h0l-.14-.09,0-.09v0Zm-.28.22.1,0h0v-.13h0C14.52,11.92,14.48,12,14.48,12Zm2.4-5.39,0-.09s0,0,0,0h0l-.09,0q0,.08.54.45v.1h-.54A0,0,0,0,1,16.7,7a3,3,0,0,0-1.4.86c-.33,0-.5.21-.5.64-.07,0-.14.3-.22.9,0,.81.35,1.26,1,1.36v0c.2,0,.57-.38,1.08-1.13l.1.05h0V9.65l-.09,0V9.6a5.58,5.58,0,0,0,.63-1.17c.06-.13.11-.19.14-.19v.14c.07,0,.12-.08.14-.23l-.09,0a5.16,5.16,0,0,0,.26-.94c0-.54-.09-.81-.26-.81h-.24A.63.63,0,0,0,16.88,6.61Zm-1.85,5,0,.09v.05a.1.1,0,0,0,.1.09.34.34,0,0,1,0-.18Zm.55,0c0,.07-.1.12-.28.14v.09l0,.09c.26-.08.39-.19.41-.32Zm.76-1.22q0,.18-.09.18H16.2v-.09h0v.09s0,0,0,0l-.09,0s0,0,0,0a2.21,2.21,0,0,1-.54.58.26.26,0,0,0,0,.14h.14a.5.5,0,0,1,.36-.23l0-.08c.33-.21.5-.41.5-.59Zm-.5,1.05H16v-.14S15.89,11.32,15.84,11.42Zm.27-5.12v0a.33.33,0,0,1,.14,0V6.2H16.2A.1.1,0,0,0,16.11,6.3ZM16.16,12V12h.09a1.41,1.41,0,0,0,.45-.41h-.09A1.1,1.1,0,0,0,16.16,12Zm1.58-2.89a2.37,2.37,0,0,1-.08.45h.08c.05,0,.1,0,.14-.13l-.05-.32Zm0-3.48v.08l.13,0v0s0-.08-.09-.08ZM20,7.52,20,7.61v0s.05.08.14.13h0C20.15,7.64,20.1,7.55,20,7.52Zm.81,2.9a.46.46,0,0,0,.27.4h.05a.08.08,0,0,0,.09-.09v-.05c-.15,0-.25-.08-.31-.26Zm4.48,1.86.1,0v-.13C25.34,12.19,25.3,12.22,25.3,12.28Zm.19,0v.08h.14v-.08Z"/><path class="cls-1" d="M29.62,5.08c.77,0,1.16.17,1.16.52,0,0,0,0,0,0v0c-.06,0-.18.1-.34.31-.09,0-.26.14-.52.43l-1,.34v0c-.71.39-1.07.86-1.07,1.41v.3c0,.28.19.45.56.51a5.83,5.83,0,0,1,1,.12H30a1.43,1.43,0,0,0,.82.34l.08-.25a.41.41,0,0,0,.21,0v.08H31v.05a2.73,2.73,0,0,1,.55.47v0h-.09v.09c.14.2.23.3.26.3h0v0a1,1,0,0,0-.17-.26v0h0a4.06,4.06,0,0,0,.56.42l.05-.08v0l-.05-.09h.05s.14.18.29.55a1,1,0,0,1-.43.69.36.36,0,0,1-.08.17h0a.58.58,0,0,0,.43-.3h.13v.22s-.07.09-.22.17h0s0,0,0-.05c-.31.19-.46.31-.46.35v0l0,.09c-.26.05-.39.16-.39.34h-.08l0,.21q-.3,0-.3.21h-.3l-.08,0-.05.09v.09A.83.83,0,0,1,31,13c0-.05,0-.08.12-.08a.3.3,0,0,0,.13,0V13l-.09,0a.27.27,0,0,1-.13,0,1.52,1.52,0,0,0,.09.34c-.08,0-.12,0-.12.08a1.25,1.25,0,0,0-.31,0v-.09h.05a.31.31,0,0,0,.13.05.3.3,0,0,1-.09-.18l-.09.05h0c-.06,0-.08,0-.08-.09l0-.08v0h0l0,.21h.08v.08h-.08c-.06,0-.09,0-.09-.08l0-.09h0c-.06,0-.09.05-.09.13h-.08A.37.37,0,0,0,30.1,13c-.2,0-.31.1-.31.25a.37.37,0,0,1,0,.18,0,0,0,0,0,0,0l-.08,0h-.09s0,0,0,0l-.09,0h-.25v.08a1.3,1.3,0,0,0,.34.08.36.36,0,0,0-.09.18h-.08l-.08-.05c0,.05,0,.09-.13.13h-.05l-.08,0c0,.06,0,.09-.13.09l-.22,0v.09h-.08l0-.09h-.13v.14l-.42,0h-.35c-1.11,0-1.79-.17-2.05-.51a8.7,8.7,0,0,1-.9-.18c-.73-.08-1.19-.12-1.36-.12a8,8,0,0,0-1.08.25l0-.08c0-.27,1.21-.62,3.64-1.07a17.92,17.92,0,0,0,3.25-.51.7.7,0,0,0,.17-.52,1.15,1.15,0,0,0-.55-.12q-.09,0-.09,0l-.52,0h-.72a2.67,2.67,0,0,1-2.14-.69c-.43-.28-.64-1.09-.64-2.44v0a2.52,2.52,0,0,1,1-1.71,8.18,8.18,0,0,1,3-1A8.31,8.31,0,0,1,29.62,5.08Zm.05,8.64c.06,0,.09,0,.09.08a.52.52,0,0,1,.25-.08l0,.08v0a.9.9,0,0,0-.47.12h-.17c-.05,0-.08,0-.08-.08l.08,0,.08,0C29.49,13.84,29.55,13.79,29.67,13.72Zm-.09-.6,0,.08v.05h.08a.08.08,0,0,0,.09-.09A.3.3,0,0,1,29.58,13.12Zm.47.13c.06,0,.09,0,.09.08v.05s0,.08-.09.08,0,0,0,0A.33.33,0,0,0,30.05,13.25Zm.21.42h0v.09h-.13C30.19,13.7,30.22,13.67,30.26,13.67Zm0-.68v0h.18v0c0-.05,0-.08-.09-.08S30.26,12.94,30.26,13Zm.81-.69a.45.45,0,0,1-.12.31v0h.12a.08.08,0,0,0,.09-.09l0-.08a.34.34,0,0,0,0-.18Zm.74,0h.12c0,.06,0,.08-.08.08Zm.77-.47,0,.08a.73.73,0,0,1-.65.43v0a.48.48,0,0,1,.47-.34S32.49,11.92,32.58,11.88Z"/><path class="cls-1" d="M35.05,1.64h.05a.44.44,0,0,0,.14.24l0,.1c.07,0,.19.39.34,1.17l0,.2a5.26,5.26,0,0,1,.1.59.26.26,0,0,0-.05.14c.06,0,.09,0,.09.1a.42.42,0,0,0,0,.2c.06,0,.11.16.14.48a.46.46,0,0,0,0,.2h.1v.29L36,6.76l0,.1a2.35,2.35,0,0,1,.14.83h.2a10,10,0,0,1,1.51-1.41,6.18,6.18,0,0,1,2.84-1.17l.67,0v.09h-.15v.1a.58.58,0,0,0,.49.29h.15v0l-.05-.1h.1a.63.63,0,0,1,.29.58l-.34-.29h-.1a4.68,4.68,0,0,1,.63,1.9h.05c.1,0,.18-.23.25-.69h0c.06,0,.09,0,.09.1v.05c0,.15,0,.61.15,1.37-.06,0-.1-.09-.1-.25h-.14v.05l.05.24h0l.1,0a.36.36,0,0,0,.1.24l0,.24c.07,0,.1.05.1.1a2.06,2.06,0,0,0-.25.69c.07,0,.1.08.1.24h-.05l.05.1v.19a.35.35,0,0,1-.05.2.51.51,0,0,1,.1.29c0,.2-.06.29-.19.29l0,.25c-.07,0-.14.14-.19.43.06,0,.1,0,.1.1l.09-.05c.07,0,.12.09.15.29l.1,0,0,.1v.05h0l-.25-.05c0,.06,0,.1-.14.1v.09l.14.2v0h0s-.05,0-.05,0a1,1,0,0,1-.44.24l-.1,0,0,.1c0,.06-.1.11-.29.15l.09.19a.94.94,0,0,0-.09.29h0l-.15-.09h-.05l-.24.44h-.1a0,0,0,0,1-.05,0l-.1,0H41c-.68-.12-1-.34-1-.69a2.81,2.81,0,0,1-.05-.49c0-.26.1-1.29.29-3.11v-.1c-.07-1.43-.33-2.15-.78-2.15,0,0-.06-.1-.19-.19a4.38,4.38,0,0,0-1.71.53,1.73,1.73,0,0,1-.54.49l-.1-.05c0,.2-.06.3-.19.3l0,.09v0c-.09,0-.17.13-.25.39l.1,0,.05.09c-.09,0-.2.39-.34,1.17a3.22,3.22,0,0,0-.25.93s.11.08.2.25h-.05l-.15-.1a1,1,0,0,1,0,.33.29.29,0,0,1,0,.15.39.39,0,0,0,0,.14H36c0-.16,0-.26-.14-.29h0a.26.26,0,0,1-.05.15l.05.19v.15l.1.05-.05.24a.74.74,0,0,1,.19.34c-.07,0-.12.17-.14.49s-.31.64-.44.64l-.39.09H34.9a1.94,1.94,0,0,1-1-.73L34,13c-.15,0-.28-1.79-.39-5.36,0,0-.06-.12-.09-.34,0,0,0,0,0,0a10,10,0,0,1-.15-1.8.26.26,0,0,1,0-.15,1.91,1.91,0,0,1,0-.44v-1a1.56,1.56,0,0,1,.88-1.27A2,2,0,0,1,35.05,1.64Zm.78,9.71v.18h.05c.06,0,.09,0,.09-.08s0-.1-.09-.1Zm.28-2.3V9.2c.07,0,.1,0,.1-.1v0Zm6.1-3h0s.12.09.24.29v0s0,.09-.15.13-.11-.09-.19-.28A.41.41,0,0,0,42.21,6ZM42.35,12a.32.32,0,0,1,0,.15c.07,0,.1,0,.1-.1l-.1,0Zm.15-5.36.1.34a.31.31,0,0,1-.2-.29Zm.83,4h.1c0,.17,0,.26,0,.29v.05h0a.34.34,0,0,0-.1-.2Zm0,.48h.1v0a.37.37,0,0,0,0,.15h-.05Z"/><path class="cls-1" d="M48.94,5.17h.13s0,0,0,0a0,0,0,0,0,0,0,3.19,3.19,0,0,1,1.09.36A3.18,3.18,0,0,1,51,5.25v.09a.3.3,0,0,0,.13,0c.43,0,.69.33.77,1,0,0-.1,0-.17.14V6.2h0v.24s.09,0,.14.13l-.09.13v.5c.12,0,.17.1.17.32l0,.09a3.43,3.43,0,0,0,.13.68h0c-.09,0-.13-.14-.13-.41h-.05a.44.44,0,0,1-.09.31l.18.37H52l0-.09q0-.09.09-.09l.05.09v.09c0,.06,0,.09-.14.09v0a1.87,1.87,0,0,1,.28.6l.09,0h0a.66.66,0,0,0,.23.41l.55.9s.08,0,.08.13l.09,0c.06.17.13.26.23.28s0-.05,0-.05l.55.41.09,0a10.58,10.58,0,0,1,1,.55,7.16,7.16,0,0,1,1.32.26.33.33,0,0,0,.17,0A2.25,2.25,0,0,0,57,12h.36v.05s0,.05,0,.05l0,.09a.42.42,0,0,1-.22.22.08.08,0,0,0-.09-.09c0,.08-.15.15-.41.23l-.09-.05-.82.18c0,.13-.06.19-.17.19l-.24-.05,0,.09h-.19a.4.4,0,0,1-.12.22l-.19-.08c-.75.09-1.13.16-1.13.22v0l.09,0h.23a3.79,3.79,0,0,1,.5,0,2.27,2.27,0,0,0,.36-.14v0c0,.06-.14.12-.41.18,0,.26.05.43.05.5a1.24,1.24,0,0,1-.41.08,4.51,4.51,0,0,1-2.9-1.31,6.61,6.61,0,0,1-1.45-2.26h-.18A4,4,0,0,1,48.35,12a2.23,2.23,0,0,1-1.9,1A2.45,2.45,0,0,1,45,12.45a.48.48,0,0,1-.45-.27h.09l0-.09-.1.05A2.7,2.7,0,0,1,43.73,10a3.86,3.86,0,0,1,2.35-3.57A7,7,0,0,1,48.57,5.3q0,.09.09.09C48.66,5.32,48.75,5.24,48.94,5.17Zm-3.31,7v.1h.23v-.14Zm.82-.4c0,.09,0,.13-.09.13l0,.09v0a.09.09,0,0,1-.1.1l-.09-.05a.32.32,0,0,1-.14.27h.14c0-.06,0-.08.05-.08l.18,0a1,1,0,0,1,.49-.27v-.13a.51.51,0,0,1-.27.09h0l-.14-.09,0-.09v0Zm-.28.22.1,0h0v-.13h0C46.2,11.92,46.17,12,46.17,12Zm2.4-5.39,0-.09s0,0,0,0h0l-.09,0q0,.08.54.45v.1h-.54s0,0,0-.05a3,3,0,0,0-1.4.86c-.33,0-.5.21-.5.64-.07,0-.14.3-.22.9,0,.81.34,1.26,1,1.36v0c.21,0,.57-.38,1.09-1.13l.1.05h0V9.65l-.09,0V9.6a5.58,5.58,0,0,0,.63-1.17c.06-.13.11-.19.14-.19v.14c.07,0,.12-.08.14-.23l-.09,0a5.16,5.16,0,0,0,.26-.94c0-.54-.09-.81-.26-.81H49A.63.63,0,0,0,48.57,6.61Zm-1.85,5,0,.09v.05a.1.1,0,0,0,.1.09.34.34,0,0,1,0-.18Zm.55,0c0,.07-.1.12-.28.14v.09l0,.09c.26-.08.39-.19.41-.32ZM48,10.37q0,.18-.09.18h0v-.09h0v.09s0,0,0,0l-.09,0s0,0,0,0a2.21,2.21,0,0,1-.54.58.26.26,0,0,0,0,.14h.13a.53.53,0,0,1,.37-.23l0-.08c.33-.21.5-.41.5-.59Zm-.5,1.05h.14v-.14S47.58,11.32,47.53,11.42ZM47.8,6.3v0a.33.33,0,0,1,.14,0V6.2h0A.1.1,0,0,0,47.8,6.3ZM47.85,12V12h.09a1.41,1.41,0,0,0,.45-.41H48.3A1.1,1.1,0,0,0,47.85,12Zm1.58-2.89a2.37,2.37,0,0,1-.08.45h.08s.09,0,.14-.13l0-.32Zm0-3.48v.08a.51.51,0,0,1,.14,0v0s0-.08-.09-.08ZM51.7,7.52l-.05.09v0s.05.08.14.13h.05C51.84,7.64,51.79,7.55,51.7,7.52Zm.81,2.9a.46.46,0,0,0,.27.4h0a.08.08,0,0,0,.09-.09v-.05c-.15,0-.25-.08-.31-.26ZM57,12.28l.1,0v-.13C57,12.19,57,12.22,57,12.28Zm.19,0v.08h.13v-.08Z"/><path class="cls-1" d="M57.14,4.52c.38,0,.67.4.87,1.19a4.23,4.23,0,0,1,.23,1.39l.09,0h.05a4.72,4.72,0,0,1,3-1.7l.22.1a.24.24,0,0,1,.14,0,.26.26,0,0,1,.14,0l.28,0h.13v0l0-.09.13-.1,0,.1s0,0,0,0h.1l.14-.09.08,0s.3-.13.88-.23c0,.07.16.15.46.23a.08.08,0,0,0,.09.09v.14s-.12.07-.22.23c-.12,0-.19.06-.24.19a2,2,0,0,1-1.1.59,8,8,0,0,1-1.89.73A2.06,2.06,0,0,0,59.8,8c-.3,0-.56.47-.78,1.42-.09,0-.13.19-.13.56a.69.69,0,0,0,.27.65l-.09.17c.09.3.21.78.36,1.43v.18c-.07,0-.14.08-.22.24v.05l.22-.05,0,.09v0c-.15,0-.26.14-.32.41a.5.5,0,0,1,.05.15l-.1,0h0l-.13-.09q-.24.08-.33.51a.12.12,0,0,0-.14.14h0a1.61,1.61,0,0,1-.29-.29q0,.18-.36.24a.27.27,0,0,0-.18,0v.1h-.05a.27.27,0,0,0-.19-.1c-.07,0-.18.09-.32.28-.15,0-.22,0-.22.09a5.34,5.34,0,0,1-1-.51l.05-.54v-.46c-.22-2.51-.32-4-.32-4.56,0-1.29.2-2.1.59-2.44C56.5,4.91,56.84,4.52,57.14,4.52Z"/></g></g></svg>