<svg xmlns="http://www.w3.org/2000/svg" viewBox="0 0 77.57 15.59"><defs><style>.cls-1{fill:#011153;}</style></defs><title>logo</title><g id="Layer_2" data-name="Layer 2"><g id="Layer_1-2" data-name="Layer 1"><path class="cls-1" d="M19.4,0a0,0,0,0,0,.05.05,5.43,5.43,0,0,0-.72,1.21A3.43,3.43,0,0,1,18.1,3a6.4,6.4,0,0,0-.92,1.35s-.12.09-.25.29c0-.07,0-.1-.09-.1v.29c-.11,0-.19.12-.24.35a4.37,4.37,0,0,0-.78,1l-.23.15,0,.1c-.07.22-.14.33-.19.33h0l-.1-.05,0,.1.1.14V7h-.05l-.09,0a1.89,1.89,0,0,0-.35.78c-.14,0-.23.16-.28.48-.06.1-.13.15-.19.15l0,.1a5.07,5.07,0,0,0-.58,1.21l-.2.14,0,.09a8.23,8.23,0,0,0-.48,1.56,5.39,5.39,0,0,0-.24.86l0,.1a.32.32,0,0,0,0,.15c.06,0,.1,0,.1.1v0a2.53,2.53,0,0,0-.35,1.49h.1v.05c-.19.17-.29.28-.29.34-.15.23-.24.34-.28.34v-.05a2.94,2.94,0,0,1-.83.29.41.41,0,0,0-.24-.05v.05a.39.39,0,0,1,.05.14l-.1.05S11,15.29,11,15.2a.58.58,0,0,1-.25.09l0-.09v-.1h0l-.19.34-.25.15h-.23a.87.87,0,0,0-.49-.2,9.07,9.07,0,0,1-.72-1.11c-.13,0-.3-.18-.49-.53l.05-.1a7.11,7.11,0,0,1-1.26-2.76,2,2,0,0,1-.33-.63,12.62,12.62,0,0,0-.64,1.64,2.93,2.93,0,0,0-.67,1.65l.05.1c-.13.45-.24.68-.35.68H5.13S5,14.21,4.79,14c0,.17-.09.25-.14.25H4.6a0,0,0,0,1,0-.05l-.1.05c-.22,0-.34,0-.34-.1s-.21.13-.38.39a.92.92,0,0,0-.59.25s0,0,0,0a1.42,1.42,0,0,1-.43.14c0-.06-.1-.11-.3-.14l-.09,0c-.36,0-.6-.31-.73-.92A24.22,24.22,0,0,1,.39,9.49s0,0,0-.05a0,0,0,0,1,0,0C.2,6.61.06,4.93,0,4.36c0,0,0-.05.05-.05l0-.24V3.54c0-.54.16-.86.49-1a1.75,1.75,0,0,1,.87-.63c0-.12.14-.28.43-.48,0-.17.23-.34.68-.53q.21.09.24.18v0A8.12,8.12,0,0,0,3,2.86a0,0,0,0,1-.05.05l.1.24,0,.29.1.19,0,.1.1.49-.05.28L3.1,5a.42.42,0,0,0-.2,0L3,5.32H3c0-.09,0-.13.1-.13l.09,0A1.05,1.05,0,0,1,3,5.52v.05l0,.48A.08.08,0,0,0,3.14,6l0-.34h.14v.19l0,.34h0a17.3,17.3,0,0,1,.63,3.1.32.32,0,0,0-.05.19q.2,0,.24.48c.05,0,.1.12.15.34a.5.5,0,0,0,0,.15.37.37,0,0,1,0,.15h0a2.72,2.72,0,0,0,.34-.78,11.22,11.22,0,0,0,.92-2c.85-.87,1.4-1.31,1.64-1.31a.26.26,0,0,0,.14,0c0-.26.33-.45,1-.57h.15l.14.09,0,.1v0l.19.43v0H8.56v.05c.11.32.19.49.25.49l.1,0L9,7c-.1,0-.15,0-.15-.1a.38.38,0,0,0,0-.19h.05c.09,0,.14.15.14.39v.15s-.05.09-.14.14l-.1,0v.1l0,.09.1,0,.28.29a.26.26,0,0,1-.14,0c0,.13.06.2.19.2s0,.09-.1.09h0L9,7.79v.1a1.23,1.23,0,0,0,.23.77.37.37,0,0,1,.15-.05A.59.59,0,0,1,9.53,9l0,.2h-.1l0-.24V8.81h-.1a1.69,1.69,0,0,0,.29.87A4.86,4.86,0,0,0,10.07,11c.06,0,.1-.07.1-.2h.09a3,3,0,0,1,.38.68c.07,0,.1,0,.1.1v.05c0,.05-.06.09-.19.14a.74.74,0,0,0,.39.63,6.08,6.08,0,0,1,.43-.58,4.54,4.54,0,0,1,.78-1.65L12,11.28l.1.05h.05l-.05-.25a4.94,4.94,0,0,0,.77-1.26,9.67,9.67,0,0,0,1-1.69,5.73,5.73,0,0,0,.82-1.3,4.08,4.08,0,0,0,.58-.92c1.49-2.34,2.23-3.52,2.23-3.54a4.55,4.55,0,0,1,.58-.91l.14-.1a.5.5,0,0,0,.15,0A7.39,7.39,0,0,1,19.4,0ZM2.75,3.54l0,.29h.1V3.54Zm.1.58a6.61,6.61,0,0,1,0,.67H3V4.12Zm.25,7.69v0a.33.33,0,0,1,0,.14h0v-.19Zm.53-2.9V9.1h.05V8.91Zm.19.77v.14c0,.07,0,.1.1.1v-.1a.22.22,0,0,1,0-.14ZM8.47,7.12v.24c0,.07,0,.1.09.1v-.1l0-.24ZM8.71,8v.19h0V8Zm.34,1v.2c0,.19.08.29.14.29a4.14,4.14,0,0,1-.09-.49Zm0-.77h.05a.09.09,0,0,1,.09.1c0,.06,0,.1-.09.1H9.1Zm.14,1.45v.19c0,.07,0,.1.1.1v0l-.05-.24Zm.14.44v.14a.34.34,0,0,1,.1.2h0v0C9.5,10.26,9.45,10.17,9.38,10.17Zm.15-.82h.05c.05,0,.18.29.39.86.1,0,.15.07.15.2l0,.1a.86.86,0,0,1,.1.33c-.05,0-.15-.09-.3-.28,0-.07,0-.1.1-.1a2.78,2.78,0,0,0-.39-.78l.05-.09-.1-.15Zm.64,1.73v.05s0,.1.13.15h0a.35.35,0,0,1-.09-.2ZM15.1,5v0a.09.09,0,0,1-.1.1V5.14C15,5.07,15.05,5,15.1,5Zm.39-.29h0s.09,0,.13.14v.05c0,.07,0,.1-.08.1A.51.51,0,0,1,15.49,4.75Z"/><path class="cls-1" d="M20.3,6v.07c-.08,0-.11,0-.11.08l.07,0h0s0-.08,0-.08l.35.27h0v.19l.08.12a.88.88,0,0,1-.39.12s-.05-.08-.16-.12l0,.08c.06,0,.08,0,.08.12h.32a.06.06,0,0,1,.07.07V7c-.1,0-.15,0-.15.07.22.07.33.14.34.2l.08,0H21s0,.07.11.07v.08h-.08v.12c.11,0,.16,0,.16.08l0,.19.08,0h0v.07a.33.33,0,0,0-.08.16s0,0,0,0A1,1,0,0,1,21,8.6h0V8.54h0a.46.46,0,0,1-.23.14l-.11,0v0a.41.41,0,0,1,0,.16v0l-.5.57a.92.92,0,0,1-.42.24,0,0,0,0,0,0,0s-.07.1-.2.19l-.11-.07a.48.48,0,0,1-.27.42l-.08,0a.57.57,0,0,0-.31.23h-.08l-.18,0a0,0,0,0,1,0,0,.07.07,0,0,0-.08-.08s-.13.13-.39.28c-.09.25-.16.38-.23.38l0,.08v.11q.14,0,.27.66a2.3,2.3,0,0,0,1.93.65H20a2.67,2.67,0,0,0,.73-.08v0c1-.3,1.89-.64,2.77-1a3.2,3.2,0,0,0-1,.85h-.08v.26a1.6,1.6,0,0,0-.46.61l-.57.85,0,.2c-.09,0-.22.12-.39.35a2.36,2.36,0,0,0-.77.19h-.19s-.07,0-.11-.12a1.16,1.16,0,0,1-.39.08l-.08,0c-.1,0-.18.09-.22.27h-.59a4.49,4.49,0,0,1-2.31-.69c-.27,0-.64-.53-1.12-1.58a2.5,2.5,0,0,1-.11-.89,1,1,0,0,1,.19-.66c.08-.19.22-.63.42-1.34a.19.19,0,0,0-.12,0,9.86,9.86,0,0,1,.51-1.51h.08s0,.08,0,.08.19-.19.42-.58a.24.24,0,0,1,0-.15,6.41,6.41,0,0,1,1.54-1.09c.57-.18.85-.29.85-.34h.12a.58.58,0,0,1-.12.31s0,.07.08.07A2.39,2.39,0,0,1,20.3,6Zm-.85.49-.07,0a3.62,3.62,0,0,0-.62.81h-.08c0-.13,0-.2-.08-.2s-.07.2-.14.2v0h.14v.12c-.09,0-.2.14-.3.42v0s0,.08.08.08a5.53,5.53,0,0,0-.31.69Q18.07,9,18,9a2.75,2.75,0,0,1,.08.58s0,0,0,0h0c.13-.07.19-.12.19-.16a1.78,1.78,0,0,0,.46.08A1.7,1.7,0,0,0,20.19,8.5l0-.24a1.23,1.23,0,0,1-.11-.43l.35.39c.1,0,.16-.08.16-.11s-.16,0-.16-.08V7.79h-.24c0-.18-.17-.37-.53-.57V7.1s0-.07.11-.07l.12,0L20,7c0-.15-.1-.23-.31-.23l-.12,0v0l0-.08s0,0,0,0,.09-.06.16-.19v0h-.12Zm-.85,3.74v0h.16v0ZM19,14v0c.06,0,.08,0,.08,0a.5.5,0,0,1,.27-.08v-.11A.65.65,0,0,1,19,14Zm.46-.18v0h.12s.08,0,.12-.11v-.08h-.08S19.56,13.68,19.49,13.78Zm.16-7.87h0V6a.07.07,0,0,1-.08.08h0V6C19.58,5.93,19.6,5.91,19.65,5.91Zm.12.42v0a.07.07,0,0,0,.07.08c0-.06.12-.11.35-.16V6.22a.24.24,0,0,1-.15,0Q19.77,6.27,19.77,6.33Zm0,7.25h0s.1-.05.16-.15v0C19.88,13.45,19.82,13.51,19.8,13.58Zm.46-5.24v.12s0,.08.08.08,0-.08,0-.08a.27.27,0,0,1,0-.12Zm.12-2.43h0a.07.07,0,0,1-.08.08h0C20.31,5.93,20.34,5.91,20.38,5.91Zm0,7.52h0c.13-.07.2-.12.2-.16v-.08h0C20.45,13.26,20.38,13.34,20.38,13.43Zm.24-5.21a.07.07,0,0,0,.07.08h.08V8.22Zm0,.28v.1c.05,0,.07,0,.07-.06v0Zm0,4.55.08,0h0c.2-.11.3-.19.3-.23v0H21A.32.32,0,0,0,20.65,13.05Zm0,.61v0c0,.05,0,.08.08.08h0a.24.24,0,0,1,0-.12Zm.15-4.94v0c0,.05,0,.08-.07.08v0C20.78,8.75,20.8,8.72,20.84,8.72Zm.23,4.71c0,.15-.05.23-.15.23l-.08.12.08,0,.23-.19,0-.08a.24.24,0,0,0,0-.11Zm-.15-5v.08H21v0Zm.54,4.2v0l.11.15a1.28,1.28,0,0,0-.22.16c-.05,0-.08,0-.08-.12h0a.56.56,0,0,1-.12.34l.08,0a1.72,1.72,0,0,0,.66-.49v0c-.19,0-.28,0-.28-.12A.3.3,0,0,1,21.46,12.58Z"/><path class="cls-1" d="M28,6.12h.13s.05,0,.05,0,0,0,0,0a3.22,3.22,0,0,1,1.1.36,3,3,0,0,1,.76-.27V6.3a.27.27,0,0,0,.13,0c.43,0,.69.33.78,1-.05,0-.11,0-.18.13V7.16h-.05v.23c.05,0,.09.05.14.14l-.09.13v.49q.18,0,.18.33L31,8.56a4.27,4.27,0,0,0,.13.69h0c-.09,0-.13-.14-.13-.41h-.05a.44.44,0,0,1-.09.31l.18.37H31l0-.1c0-.05,0-.08.08-.08l.05.08v.1c0,.06,0,.09-.13.09v0a2.2,2.2,0,0,1,.27.59l.09,0h.05a.66.66,0,0,0,.22.41l.55.89c.06,0,.09.05.09.14l.08,0c.06.16.14.26.23.28s0-.05.05-.05l.54.41.09-.05s.34.18,1,.54a6.9,6.9,0,0,1,1.32.27.47.47,0,0,0,.17,0,4,4,0,0,0,.41,0h.36v.05s0,0,0,0l0,.08c0,.08-.09.16-.22.23a.08.08,0,0,0-.09-.09c0,.07-.15.15-.41.22l-.09,0-.82.18c0,.13-.05.19-.17.19l-.24,0,0,.09H34.3c0,.05,0,.12-.13.22L34,14c-.75.09-1.13.17-1.13.23v.05l.09-.05h.23a2.61,2.61,0,0,1,.5.05,2.27,2.27,0,0,0,.36-.14v.05c0,.06-.13.12-.41.17a4,4,0,0,1,.05.5,1,1,0,0,1-.41.09,4.58,4.58,0,0,1-2.9-1.31,6.42,6.42,0,0,1-1.44-2.26h-.19A4,4,0,0,1,27.42,13a2.23,2.23,0,0,1-1.9,1,2.55,2.55,0,0,1-1.41-.55.48.48,0,0,1-.45-.28h.09l0-.08-.1,0A2.73,2.73,0,0,1,22.8,11a3.87,3.87,0,0,1,2.36-3.58,7,7,0,0,1,2.49-1.13c0,.06,0,.09.08.09S27.83,6.2,28,6.12Zm-3.3,7v.1h.22V13.1Zm.81-.4c0,.1,0,.14-.09.14l.05.09v0a.09.09,0,0,1-.1.1l-.09,0a.35.35,0,0,1-.13.27h.13c0-.06,0-.09.05-.09l.18,0A.94.94,0,0,1,26,13v-.13a.54.54,0,0,1-.28.09h0l-.13-.09,0-.1v0Zm-.28.23.1,0h0v-.13h0C25.28,12.88,25.24,12.91,25.24,13Zm2.41-5.39,0-.09a0,0,0,0,0,0-.05h0l-.09.05s.18.2.55.45V8h-.55a0,0,0,0,1-.05,0,3,3,0,0,0-1.4.86c-.33,0-.49.21-.49.63-.08,0-.15.31-.23.91,0,.81.35,1.26,1,1.36v0q.32,0,1.08-1.14l.1,0h0v-.08l-.09,0v-.08a5.41,5.41,0,0,0,.63-1.18c.06-.12.11-.18.14-.18v.14c.07,0,.12-.08.14-.23l-.09,0a4.4,4.4,0,0,0,.26-1c0-.54-.08-.81-.26-.81H28.1A.61.61,0,0,0,27.65,7.57Zm-1.86,5-.05.09v0a.11.11,0,0,0,.1.08.33.33,0,0,1,0-.17Zm.55,0c0,.07-.09.12-.28.14v.08l0,.1c.26-.08.39-.19.41-.32Zm.76-1.22c0,.12,0,.17-.09.17H27v-.08h0v.08s0,0,0,.05l-.08,0a0,0,0,0,0,0,0,2.48,2.48,0,0,1-.55.59.34.34,0,0,0-.05.14h.14a.5.5,0,0,1,.36-.23l0-.09c.33-.21.5-.4.5-.58Zm-.5,1h.14v-.13S26.65,12.28,26.6,12.37Zm.28-5.11v0l.13,0v-.1H27C26.9,7.17,26.88,7.2,26.88,7.26Zm0,5.65V13H27c.28-.2.43-.33.45-.41h-.09A1.1,1.1,0,0,0,26.92,12.91ZM28.51,10a2.11,2.11,0,0,1-.09.45h.09s.09-.05.13-.14L28.59,10Zm-.05-3.49v.09a.27.27,0,0,1,.13,0v0c0-.06,0-.09-.08-.09Zm2.31,2-.05.08v0s.05.09.14.14h.05C30.91,8.59,30.86,8.5,30.77,8.48Zm.81,2.9a.46.46,0,0,0,.28.4h0a.08.08,0,0,0,.09-.09v0a.32.32,0,0,1-.31-.26Zm4.48,1.85.1,0v-.14C36.1,13.15,36.06,13.18,36.06,13.23Zm.19-.05v.09h.14v-.09Z"/><path class="cls-1" d="M36.58.89a6.18,6.18,0,0,0,1.78.48l.23-.06h.16c.13,0,.2,0,.2.11l.07,0h.44a1.34,1.34,0,0,0,.35-.06.57.57,0,0,0,.33.11.25.25,0,0,0,.15,0l.08,0a1.18,1.18,0,0,1,.31,0l.25,0a.26.26,0,0,1,.19,0q0,.09.12.09l.08,0a.24.24,0,0,0,.12,0,.26.26,0,0,0,.15,0,1.6,1.6,0,0,0,.32,0l.28,0a2.27,2.27,0,0,0,.47.1l.16-.1a.36.36,0,0,0,.2.1,1.18,1.18,0,0,1,.31-.1l0,.1.27-.06.25.06a.48.48,0,0,1,.31-.1h0a.38.38,0,0,1,.27.15,1,1,0,0,1,.68-.26v.06a1,1,0,0,1,.44-.11l.07.05A3.59,3.59,0,0,1,46.57,1c0-.07,0-.1.08-.1A.43.43,0,0,1,47,1.2v.06c0,.14-.09.2-.12.2l0,.11v.16l-.19.21a.11.11,0,0,1,.08.11,2.26,2.26,0,0,1-.52.85,5.11,5.11,0,0,1-1.07,1.64,5.73,5.73,0,0,1-.67,1.22,3.16,3.16,0,0,0-.66.64,2.77,2.77,0,0,0-1.12,1,4.43,4.43,0,0,1-1.45,1.86,5.31,5.31,0,0,1-.56.58l0,.11V10c-.1,0-.29.35-.55,1.06-.09,0-.23.13-.4.38a.34.34,0,0,1,0,.15c0,.11,0,.16-.11.16v.06h0l.08-.06a.22.22,0,0,1,.13.06l.23-.06.2.06c0-.08,0-.11.08-.11h.31a.41.41,0,0,0,0,.16l.28,0h.63l.2-.06v-.11l-.08.06h0v-.06c0-.06,0-.1.07-.1l.16.16c.12-.14.21-.22.27-.22v.11l0,.11h.28l.24-.06.08.06.35-.06.48.06c0-.14.08-.22.12-.22h0s.07.06.07.16h.24l-.08-.16.08,0h0a.27.27,0,0,0,.08.2c.18-.21.3-.31.36-.31l.15.05.08-.05.08.05a1.27,1.27,0,0,1,.35-.05c.07.1.14.15.2.15v.11a6.39,6.39,0,0,1-1.3.22h-.72a2.08,2.08,0,0,0-.43,0l-.07,0c-.48.08-.72.15-.72.2a.31.31,0,0,0,.12.06l.2-.06v.06a.24.24,0,0,1,.11-.06c.11,0,.17,0,.17.06l.47-.06h1.38v.06c0,.21-.16.31-.32.31v.11l0,.11-.95.21v-.06a.44.44,0,0,1-.31.11s0,0,0,0l0,.11V13l.83-.05V13a.56.56,0,0,1,.32-.11v.06l.27-.17.09.06.19-.06v.06c0,.06-.14.15-.44.27,0,.05-.09.11-.27.15l-.23-.05c-.14.15-.22.22-.25.22s0-.06,0-.06l0-.11c0-.07,0-.1-.08-.1l-.27.27v.1c.05,0,.08,0,.08.05a5.38,5.38,0,0,0,1.06-.21v.06a.78.78,0,0,1,.36-.11c0,.07-.14.21-.44.42v.11l-.11-.11h0A3,3,0,0,0,44,14c0-.07,0-.1-.07-.1h0q0,.15-.12.15a.55.55,0,0,0-.21-.21c0,.11-.19.16-.58.16V14h-.12l0,.11v.06h-.08c0-.08-.08-.14-.24-.17a0,0,0,0,0,0,0c0,.1-.07.15-.2.15v.06a.43.43,0,0,1,.24,0s0,0,0,0v.1h-.24l-.11-.1c0,.09-.07.18-.2.26H42v-.1h-.11a.1.1,0,0,0-.09.1.65.65,0,0,1,0,.21.87.87,0,0,0-.28.11.5.5,0,0,0-.23-.11l-.35.21,0-.1-.21.16h-.15c-.06,0-.08,0-.08-.1h.23q0-.27.12-.27c0-.07,0-.11-.08-.11h-.23a1,1,0,0,0-.51.11.22.22,0,0,0-.13-.06v.11l.29-.05c.18,0,.27.09.27.16l-.08.05v-.05a2,2,0,0,1-.52.26h-.07c-.06,0-.08,0-.08-.11l-.2.06h-.12c-.05,0-.07,0-.07-.1l-.56,0c-.7,0-1.07-.1-1.1-.31s0-.11-.12-.11a.65.65,0,0,1-.56.27h-.39v-.06s0-.1.12-.16a3.72,3.72,0,0,0,.48.11l0-.11-.09,0H36.5a.27.27,0,0,1-.15-.05l-.17.1a.48.48,0,0,0-.31-.1h-.2c-.05,0-.07.07-.07.21h-.33v-.11h.21v0a1.41,1.41,0,0,1-.6-.32,1.2,1.2,0,0,0-.5.16q-.3,0-.48-.42v-.05c0-.07,0-.11.07-.11l0,.11c.06,0,.09-.06.12-.06l0-.26c.11,0,.16-.11.16-.16s-.08,0-.08-.11v0l.52-.47.08.05c.15-.05.23-.1.23-.16v-.06l-.16-.05v-.11c.11,0,.16,0,.16-.1s-.12,0-.12-.11c.13-.25.2-.37.24-.37h.51a1.41,1.41,0,0,1,.36.06.2.2,0,0,1,.15-.06c0,.07,0,.11.08.11l.09,0a.21.21,0,0,0,.12,0c0-.08.2-.18.54-.32a5.85,5.85,0,0,1,1.11-1.11,6.43,6.43,0,0,0,1.34-1.65h0A13.77,13.77,0,0,1,38,10.21l-.08,0a2.78,2.78,0,0,1-.62.73h0l-.09-.05c0,.14-.25.31-.74.53l0-.11a2.86,2.86,0,0,0,.47-.26v-.16c-.09.07-.15.11-.2.11l0-.11a1.19,1.19,0,0,0,.6-.59.88.88,0,0,1,.51-.26l.39-.58.08.05,0-.1a0,0,0,0,1,0,0l.36-.43.07.06c0-.15.11-.24.32-.27V8.57h-.08V8.52c0-.06.09-.18.28-.38,0,0,.12.12.35.22h0l.08,0a.46.46,0,0,1,0,.21c.55-.26.83-.49.83-.69l0-.11s0,0,0,0A2.2,2.2,0,0,1,41,7.29V7.2l0-.11a1.66,1.66,0,0,1,.82-.69c0-.15.13-.28.4-.37a3.4,3.4,0,0,0,.43-.48.09.09,0,0,1,.07.1v.06a1.31,1.31,0,0,1-.27.37s.11.06.2.16l.59-.53q.12,0,.12-.06a.34.34,0,0,1,0-.15s0,0,0-.06-.08,0-.08-.1,0-.11.08-.11h0a.41.41,0,0,0,0,.16.41.41,0,0,0,0,.16l.08.06s.08-.12.24-.22l0-.11V5.13h0V5.07c0-.05.14-.19.4-.42h0a2.91,2.91,0,0,0-.87.69c-.05,0-.07,0-.07-.11s.09-.1.15-.32H43l-.28.27h-.12L42.66,5V5c-.13,0-.2.1-.2.16v0h.12c0,.16-.24.39-.7.69l-.76.74h0L41,6.5q0,.33-.09.33h0V6.66h0C40.08,7.54,39.66,8,39.54,8h0v0c0-.06.12-.22.35-.48h-.11V7.4c.24-.42.46-.63.63-.63v.06h0l.43-.43V6.29c-.08,0-.12,0-.12.17h-.08V6.29c.3-.09.44-.15.44-.21S41,6.05,41,6s.07,0,.07-.11l.2,0h.12V5.76h-.08v0c.58-.52.87-.83.87-.91a0,0,0,0,0,0,0,.24.24,0,0,0-.12,0,.57.57,0,0,1-.36-.15.28.28,0,0,1-.12,0v0l-.08,0-.19-.1s0,0,0,.05a2,2,0,0,1-.83-.16l-.08,0a.38.38,0,0,0-.19-.11l-.25.06a.22.22,0,0,0-.11-.16h0c-.09.11-.15.16-.2.16a.81.81,0,0,1-.31-.06,15.55,15.55,0,0,1-1.94.17A2.13,2.13,0,0,1,35.2,3.43V3.38a.64.64,0,0,1,.28-.54q0-.42.27-.42a1.17,1.17,0,0,1,.31-.58h.12c0-.25.07-.38.21-.38l0-.26C36.35,1.1,36.43,1,36.58.89ZM34.33,13.66l0,.11v.05h.28v-.11Zm.44,0v.11h.07l.28-.06v-.05Zm.31.27c0,.07,0,.1.08.1L36,14l.44.06c.1,0,.15-.1.15-.16s-.08,0-.08,0l-.07,0a3.12,3.12,0,0,1-.52-.16h-.28A1,1,0,0,1,35.08,13.93Zm.32-1.33v.06h.16V12.6Zm.66,1.91h0v.16h0c-.05,0-.07,0-.07-.11Zm.72-.64V14H37c.05,0,.08,0,.08-.1a.33.33,0,0,1-.12,0A.25.25,0,0,1,36.78,13.87Zm.35-2.28.09.05a.21.21,0,0,1,.11-.05v.05c.45-.2.67-.36.67-.47v-.06A1.65,1.65,0,0,0,37.13,11.59Zm0,2.28c0,.07,0,.1.08.1h.19c0-.07,0-.1-.08-.1Zm.43-3.7c0,.06,0,.09-.08.09v.06h0a.22.22,0,0,1,.15-.06v-.09Zm.11,3.6v.05l.24,0,0-.1ZM37.84,10v.11h0S38,10,38,9.89h0A.22.22,0,0,1,37.84,10Zm.2,1.11v0h.12a.56.56,0,0,1,0-.15h-.07A.1.1,0,0,0,38,11.06Zm.09-1.32v0c.23,0,.35-.14.35-.42C38.24,9.55,38.13,9.68,38.13,9.74Zm.07.95v.05h.08q.24-.12.24-.21h-.08C38.31,10.64,38.24,10.69,38.2,10.69Zm0,3.82v.1h.12v-.1Zm.08-.58c.18,0,.27-.1.27-.16h0C38.4,13.8,38.32,13.85,38.32,13.93ZM39,8.78V9h0c.06,0,.09,0,.09-.11V8.78Zm.4-.9v.06c0,.06,0,.1-.08.1h0S39.27,7.94,39.35,7.88Zm-.08.64v.05s.08-.05.11-.16h0C39.29,8.42,39.27,8.46,39.27,8.52Zm.31-.9h0s0,.1-.12.15v0C39.51,7.65,39.53,7.62,39.58,7.62Zm.2,1.64h0c.06,0,.08,0,.08-.11h0C39.8,9.16,39.78,9.2,39.78,9.26Zm.28-1.59h0v0c0,.06,0,.11-.13.16h-.08V7.77S40,7.74,40.06,7.67Zm.31-.32h0c0,.06,0,.13-.16.22V7.51S40.29,7.41,40.37,7.35Zm.39-.47,0,.1-.27.31,0-.09S40.58,7.06,40.76,6.88ZM40.84,2c0,.07,0,.1.09.1H41c.05,0,.07,0,.07-.1Zm.24,10.07v0c.11,0,.16-.1.16-.16h-.08A.11.11,0,0,0,41.08,12.07Zm.16-4.72h.12s.06-.13.19-.26h0C41.33,7.21,41.24,7.29,41.24,7.35Zm.2.05v.11h.07c.16-.13.24-.22.24-.26v0h-.08C41.51,7.29,41.44,7.36,41.44,7.4Zm0,4.61c0,.07,0,.11.08.11.24,0,.36-.08.36-.16h-.24Zm.24-5s.08,0,.08.16.29-.16.48-.48a.1.1,0,0,0,.11-.11.43.43,0,0,1-.08-.2h0c-.19,0-.32.12-.39.37-.14,0-.21.09-.21.26Zm.2-.26h.16c0,.07,0,.11-.08.11S41.91,6.79,41.91,6.72Zm.47,6.78s0,0,0,.05a.28.28,0,0,1,.12-.05v-.1h-.08C42.41,13.4,42.38,13.44,42.38,13.5Zm.56-.16,0,.11.08.05h.08s.07,0,.07-.1A.25.25,0,0,1,42.94,13.34ZM43,14h0s.07,0,.07-.1h0A.09.09,0,0,0,43,14Zm.75-8.69h.08c.21-.21.34-.31.39-.31V4.86h0c-.29.19-.43.31-.43.37Zm1.14,7.1.08.06a.22.22,0,0,1,.12-.06v.11a2.18,2.18,0,0,1-.52.11v-.11A.76.76,0,0,0,44.91,12.38Zm0,.33h.16v.1H45ZM45,1.89v.05h.12s.07-.05.11-.15h-.15A.1.1,0,0,0,45,1.89Zm.23,10.23v.11l-.19.06v-.11Zm.28.11h0v.06c0,.08-.11.13-.32.15l0-.11A.55.55,0,0,1,45.54,12.23Zm.12.32v.11a1.48,1.48,0,0,1-.44.09v-.09A1.72,1.72,0,0,1,45.66,12.55Zm0-10.71h0c.06,0,.08,0,.08-.11h0C45.65,1.74,45.63,1.78,45.63,1.84Zm.23-.16v.11H46V1.63A.33.33,0,0,1,45.86,1.68Z"/><path class="cls-1" d="M51.28,6.12h.14a0,0,0,0,1,0,0s0,0,0,0a3.22,3.22,0,0,1,1.1.36,3,3,0,0,1,.76-.27V6.3a.33.33,0,0,0,.14,0c.43,0,.68.33.77,1-.05,0-.11,0-.18.13V7.16H54v.23c.05,0,.09.05.14.14l-.09.13v.49q.18,0,.18.33l-.05.08a3.33,3.33,0,0,0,.14.69h0c-.09,0-.14-.14-.14-.41h0a.44.44,0,0,1-.09.31l.18.37h.1l0-.1a.09.09,0,0,1,.09-.08l0,.08v.1c0,.06,0,.09-.13.09v0a2.2,2.2,0,0,1,.27.59l.09,0h0a.66.66,0,0,0,.22.41l.55.89c.06,0,.09.05.09.14l.09,0c0,.16.13.26.22.28s0-.05,0-.05l.55.41.08-.05a10,10,0,0,1,.95.54A6.9,6.9,0,0,1,58.8,13,.47.47,0,0,0,59,13a4,4,0,0,0,.41,0h.37v.05a0,0,0,0,1,0,0l0,.08a.42.42,0,0,1-.23.23.08.08,0,0,0-.09-.09c0,.07-.15.15-.41.22l-.08,0-.82.18c0,.13-.06.19-.18.19l-.23,0,0,.09h-.18c0,.05,0,.12-.13.22L57.26,14c-.76.09-1.14.17-1.14.23v.05l.09-.05h.24a2.59,2.59,0,0,1,.49.05,2.27,2.27,0,0,0,.36-.14v.05c0,.06-.13.12-.41.17a4,4,0,0,1,0,.5,1,1,0,0,1-.41.09,4.61,4.61,0,0,1-2.9-1.31,6.42,6.42,0,0,1-1.44-2.26H52A4,4,0,0,1,50.69,13a2.23,2.23,0,0,1-1.9,1,2.58,2.58,0,0,1-1.41-.55.48.48,0,0,1-.45-.28H47l0-.08-.1,0A2.73,2.73,0,0,1,46.07,11a3.87,3.87,0,0,1,2.36-3.58,7,7,0,0,1,2.49-1.13.08.08,0,0,0,.09.09C51,6.28,51.1,6.2,51.28,6.12Zm-3.3,7v.1h.22V13.1Zm.81-.4c0,.1,0,.14-.09.14l0,.09v0a.09.09,0,0,1-.1.1l-.09,0a.35.35,0,0,1-.13.27h.13c0-.06,0-.09,0-.09l.18,0a1,1,0,0,1,.5-.27v-.13A.54.54,0,0,1,49,13h0l-.13-.09,0-.1v0Zm-.27.23.09,0h0v-.13h0Q48.52,12.89,48.52,13Zm2.4-5.39-.05-.09a0,0,0,0,0,.05-.05h-.05l-.09.05s.18.2.55.45V8h-.55a0,0,0,0,1-.05,0,3,3,0,0,0-1.39.86c-.34,0-.5.21-.5.63-.07,0-.15.31-.23.91,0,.81.35,1.26,1,1.36v0q.32,0,1.08-1.14l.1,0h0v-.08l-.09,0v-.08a5.46,5.46,0,0,0,.64-1.18c0-.12.1-.18.13-.18v.14c.07,0,.12-.08.14-.23l-.09,0a4.74,4.74,0,0,0,.27-1q0-.81-.27-.81h-.23A.61.61,0,0,0,50.92,7.57Zm-1.86,5-.05.09v0a.11.11,0,0,0,.1.08.33.33,0,0,1,0-.17Zm.55,0c0,.07-.09.12-.27.14v.08l0,.1c.25-.08.39-.19.41-.32Zm.76-1.22c0,.12,0,.17-.09.17h-.05v-.08h0v.08s0,0,0,.05l-.08,0a0,0,0,0,0,0,0,2.29,2.29,0,0,1-.55.59.34.34,0,0,0-.05.14h.14a.5.5,0,0,1,.36-.23L50,12c.33-.21.5-.4.5-.58Zm-.5,1H50v-.13S49.93,12.28,49.87,12.37Zm.28-5.11v0l.13,0v-.1h-.05A.09.09,0,0,0,50.15,7.26Zm.05,5.65V13h.08c.28-.2.43-.33.45-.41h-.09A1,1,0,0,0,50.2,12.91ZM51.78,10a2.11,2.11,0,0,1-.09.45h.09s.09-.05.13-.14l0-.31Zm-.05-3.49v.09a.33.33,0,0,1,.14,0v0a.08.08,0,0,0-.09-.09Zm2.31,2,0,.08v0s0,.09.14.14h0C54.18,8.59,54.13,8.5,54,8.48Zm.81,2.9a.46.46,0,0,0,.28.4h0s.08,0,.08-.09v0a.32.32,0,0,1-.31-.26Zm4.49,1.85.09,0v-.14C59.37,13.15,59.34,13.18,59.34,13.23Zm.18-.05v.09h.14v-.09Z"/><path class="cls-1" d="M59.48,5.48c.39,0,.68.4.87,1.19.07,0,.14.46.24,1.39l.08,0h0a4.68,4.68,0,0,1,3-1.7l.22.09a.33.33,0,0,1,.14,0,.41.41,0,0,1,.15,0l.27,0h.14v0l-.05-.09.14-.1,0,.1s0,0,0,0h.09L65,6.26l.09,0s.29-.13.88-.24c0,.08.15.15.46.24,0,.06,0,.09.08.09v.13s-.12.08-.22.24a.25.25,0,0,0-.24.18,2,2,0,0,1-1.1.6,8.29,8.29,0,0,1-1.88.73,2,2,0,0,0-.92.65c-.31,0-.57.47-.78,1.42-.09,0-.14.19-.14.56a.68.68,0,0,0,.27.64l-.08.18c.09.3.21.77.36,1.42v.19c-.07,0-.15.08-.23.23v0l.23,0,0,.09v.05c-.16,0-.27.14-.33.41a.29.29,0,0,1,0,.15l-.09,0h0l-.14-.09c-.16,0-.26.22-.32.51-.1,0-.15,0-.15.13h0a1.47,1.47,0,0,1-.28-.28c0,.12-.15.2-.36.23a.41.41,0,0,0-.19,0v.09h0a.3.3,0,0,0-.18-.09c-.07,0-.18.09-.33.28-.15,0-.22,0-.22.09a6,6,0,0,1-1-.51l0-.55v-.46c-.21-2.5-.32-4-.32-4.56q0-1.94.6-2.43C58.84,5.86,59.18,5.48,59.48,5.48Z"/><path class="cls-1" d="M72.75.06a1.52,1.52,0,0,0,.42.16V.48c.06.7.17,1,.34,1l0,.09c0,.2-.1.29-.2.29v.17a9.87,9.87,0,0,1-.13,1.39.27.27,0,0,1,0,.16.56.56,0,0,0-.08.25V4c.11.08.17.15.17.21a1.71,1.71,0,0,0,0,.24.34.34,0,0,1,0,.13s-.08,0-.13.13V5l.26-.2c.06,0,.13.18.2.53a1.64,1.64,0,0,1-.08.38l.08.17c0,.29,0,.51,0,.67v.34l.13,0a5.72,5.72,0,0,0-.22,1.39h.09V8.18h.13l-.13.8q.09,0,.09.09v.25l-.09.12v.09a3.07,3.07,0,0,1,.09.33v0l-.09.13a.33.33,0,0,1,0,.17h.09c0-.17,0-.25.08-.25A4.78,4.78,0,0,1,74,11.16a4.29,4.29,0,0,0,1.14,1.59,3.41,3.41,0,0,0,1.83.93c.39.07.59.15.59.25V14a16.59,16.59,0,0,1-1.93.59.9.9,0,0,0-.33.25.27.27,0,0,0,.13,0l.12,0v0c0,.09-.11.13-.25.13h-.42c0,.11,0,.17-.09.17h-.54A8,8,0,0,1,72,14.05a4.55,4.55,0,0,0-.71-.79,3.72,3.72,0,0,1-2,1.47c0,.09-.4.16-1.21.2h-.09A2.4,2.4,0,0,1,66,14c-.56-.2-.87-.76-.91-1.68v0a.8.8,0,0,1,.25-.47h0v.05l-.13.2v.13l.13.16v.05s0,0,0,0a10.07,10.07,0,0,1,.21,1.05l.08,0h0v-.25a1.12,1.12,0,0,1-.16-.47,1.24,1.24,0,0,1,0-.33l0-.25v-.33s-.12-.1-.22-.3h0v-.12a1,1,0,0,0,.22-.46.36.36,0,0,1-.05-.13,1.92,1.92,0,0,0,.25-.55l1.1-1a10.54,10.54,0,0,1,2.63-1.55c.62-.17.92-.31.92-.42a3.92,3.92,0,0,1,.22-.71.33.33,0,0,0,.16,0l0-.2L71,6l0-.09a3.19,3.19,0,0,0,.21-1h.08v.13h0V4.83s-.08,0-.08,0a4.54,4.54,0,0,1,.08-.54h.09v.29h0a2.32,2.32,0,0,1,.17-.75V3.66l.12-1.13s0,0,0,0l0-.21c0-.3,0-.69,0-1.18a4.86,4.86,0,0,1,0-.58h0l.2,0a.27.27,0,0,0,0-.12h.18l.08,0c0-.17.14-.26.42-.26C72.67.22,72.71.17,72.75.06ZM65.29,12.84V13c0,.05,0,.08.09.08v-.25Zm2.31,1.54-.08.13.29.13a.24.24,0,0,1,.12,0v-.22a.28.28,0,0,0-.12,0Zm.33-2.63a.81.81,0,0,0,.47.84h.24a6.46,6.46,0,0,0,1.22-2.31.3.3,0,0,0,.13,0c0-.06.14-.5.42-1.34,0,0,0,0,0,0a0,0,0,0,1,0,0,3.81,3.81,0,0,0-1.68,1.26A2.77,2.77,0,0,0,68,11.75Zm.34,3,.08,0v-.13A.09.09,0,0,0,68.27,14.73ZM71.33,3.5h.09v.12h-.09Zm1-2.14v.16h0V1.36Zm0,.29v.13q0,.09.09.09a.24.24,0,0,1,0-.13.34.34,0,0,1,0-.18C72.4,1.58,72.37,1.6,72.37,1.65Zm.34-.59v.26h0V1.06Zm.17-.62a2.29,2.29,0,0,1,.17.66h0V.94c0-.33-.09-.5-.17-.5Zm.25.79,0,.09v.2h.12v-.2C73.21,1.26,73.19,1.23,73.13,1.23Zm.12,4.24c0,.11.09.16.13.16l.05-.42C73.38,5.21,73.32,5.3,73.25,5.47ZM73.34,7a.24.24,0,0,1,0,.13l0,.2c.06,0,.09,0,.09-.07V7.06A.08.08,0,0,0,73.34,7Zm.25-3.64h.08V3.5l0,.42s-.09-.09-.12-.26A1.1,1.1,0,0,0,73.59,3.33Zm.08.66a.45.45,0,0,1,0,.13.48.48,0,0,0-.09.26h-.09v0C73.54,4.13,73.59,4,73.67,4Z"/></g></g></svg>